<?xml version="1.0" encoding="UTF-8" standalone="no"?>
<svg width="228px" height="72px" viewBox="0 0 228 72" version="1.1" xmlns="http://www.w3.org/2000/svg" xmlns:xlink="http://www.w3.org/1999/xlink">
    <!-- Generator: Sketch 46.2 (44496) - http://www.bohemiancoding.com/sketch -->
    <title>logo</title>
    <desc>Created with Sketch.</desc>
    <defs>
        <polygon id="path-1" points="0 57.959413 215.923407 57.959413 215.923407 0.238233174 0 0.238233174"></polygon>
    </defs>
    <g id="Symbols" stroke="none" stroke-width="1" fill="none" fill-rule="evenodd">
        <g id="logo">
            <g id="LOGO">
                <polygon id="Fill-1" fill="#FFFFFF" points="6 34 6 55 22 55 22 51.9686001 9.28817221 51.9686001 9.28817221 45.6808244 20.4479441 45.6808244 20.4479441 42.6458408 9.28817221 42.6458408 9.28817221 37.0325945 21.3594052 37.0325945 21.3594052 34"></polygon>
                <g id="Group-28" transform="translate(6.000000, 7.000000)">
                    <path d="M38.6419542,26.8760996 C38.180776,27.5576224 26.3546747,45.0094015 26.3546747,45.0094015 L38.243185,45.0094015 L38.243185,48.0528702 L19.9723407,48.0528702 C20.443245,47.3689492 32.4695415,29.921567 32.4695415,29.921567 L20.9668323,29.921567 L20.9668323,26.8760996 L38.6419542,26.8760996 Z" id="Fill-2" fill="#FFFFFF"></path>
                    <path d="M76.2137561,34.8908072 L76.2137561,48.0483934 L70.1292833,48.0483934 L70.1292833,27.9768488 L74.28394,29.7568023 C75.6216811,27.8209579 77.8266642,26.0725823 80.5455084,26.0725823 C83.0337636,26.0725823 85.2902139,27.0259147 87.0421238,28.5264639 L83.539925,33.2999212 C82.5705591,31.9820441 81.2810432,31.208186 79.9453283,31.208186 C77.8724578,31.208186 76.2137561,32.8462389 76.2137561,34.8908072" id="Fill-4" fill="#FFFFFF"></path>
                    <mask id="mask-2" fill="white">
                        <use xlink:href="#path-1"></use>
                    </mask>
                    <g id="Clip-7"></g>
                    <polygon id="Fill-6" fill="#FFFFFF" mask="url(#mask-2)" points="89.0645403 48.0483534 95.1469869 48.0483534 95.1469869 26.6825152 89.0645403 26.6825152"></polygon>
                    <path d="M111.530931,48.5933318 C105.217085,48.5933318 99.5500233,43.9118101 99.5500233,37.3659939 C99.5500233,30.819778 105.217085,26.1378566 111.578346,26.1378566 C114.343794,26.1378566 116.925258,27.0464203 119.7365,29.0905889 L117.517738,32.2815543 C115.719224,31.1435513 113.834796,30.5911381 111.578346,30.5911381 C108.905701,30.5911381 105.81686,32.5469685 105.81686,37.3659939 C105.81686,42.1838201 108.859502,44.1400503 111.578346,44.1400503 C113.834796,44.1400503 116.002496,43.5476651 117.845993,42.5011979 L119.515637,46.1726269 C117.164762,47.809081 114.620988,48.5933318 111.530931,48.5933318" id="Fill-8" fill="#FFFFFF" mask="url(#mask-2)"></path>
                    <path d="M133.238688,30.5910981 C130.934013,30.5910981 128.306756,32.0468787 127.615799,35.5464281 L137.985015,35.5464281 C137.754426,32.2743194 135.542958,30.5910981 133.238688,30.5910981 M133.477788,44.1400103 C136.013863,44.1400103 137.799409,43.5676111 140.198508,42.1837802 L142.000669,45.579802 C139.463784,47.6255695 136.692662,48.5932918 133.238688,48.5932918 C126.516347,48.5932918 121.48229,43.9117701 121.48229,37.3659539 C121.48229,30.819738 126.605908,26.1378166 132.965142,26.1378166 C139.418395,26.1378166 143.932107,31.0012109 143.932107,37.6389627 L143.932107,39.0028077 L127.615799,39.0028077 C128.017,42.2645236 130.77718,44.1400103 133.477788,44.1400103" id="Fill-9" fill="#FFFFFF" mask="url(#mask-2)"></path>
                    <path d="M51.5969696,30.3650964 L51.5969696,44.3193247 C52.1039415,44.5027962 52.7495099,44.5943321 53.3488795,44.5943321 C55.928722,44.5943321 59.5711385,42.5937331 59.5711385,37.95698 C59.5711385,33.1379546 56.2975024,30.2751594 53.0720916,30.2751594 C52.5659302,30.2751594 52.0569321,30.3207274 51.5969696,30.3650964 L51.5969696,30.3650964 Z M40.536797,31.8204772 C43.3942379,28.3656965 47.8645869,26.1380564 52.8419077,26.1380564 C60.7694724,26.1380564 65.8387857,31.9559823 65.8387857,37.95698 C65.8387857,43.8656424 61.0908383,48.5935316 55.0533749,48.5935316 C53.8096525,48.5935316 52.6571122,48.4120587 51.5969696,48.0942812 L51.5969696,57.9593731 L45.5133073,57.9593731 L45.5133073,32.4096646 C44.5917614,33.0024495 43.7626131,33.6380045 43.0246469,34.4106634 L40.536797,31.8204772 Z" id="Fill-10" fill="#FFFFFF" mask="url(#mask-2)"></path>
                    <path d="M94.7884998,7.88471861 C96.3000946,9.37527482 96.3000946,11.7951802 94.7884998,13.2865359 C93.2769051,14.7774918 90.8226912,14.7774918 89.3115017,13.2873353 C87.7990964,11.7943808 87.7999069,9.37567454 89.3123122,7.88471861 C90.8235017,6.39416239 93.2756893,6.39256351 94.7884998,7.88471861" id="Fill-11" fill="#FFFFFF" mask="url(#mask-2)"></path>
                    <path d="M88.0565133,14.5245889 C89.5677028,16.0151452 89.5685133,18.4350506 88.0561081,19.9264062 C86.5449186,21.4177619 84.0911099,21.4169624 82.5803257,19.9264062 C81.0671099,18.4334517 81.0683257,16.0155449 82.5799205,14.5245889 C84.0919205,13.033633 86.5437028,13.0324338 88.0565133,14.5245889" id="Fill-12" fill="#FFFFFF" mask="url(#mask-2)"></path>
                    <path d="M101.406124,1.35724957 C102.917719,2.84780578 102.917719,5.2677112 101.406529,6.75906686 C99.8945291,8.2500228 97.4407205,8.2500228 95.929531,6.7598663 C94.4167205,5.26691176 94.4179362,2.84860522 95.9299362,1.35724957 C97.4419362,-0.13370637 99.8933133,-0.13530525 101.406124,1.35724957" id="Fill-13" fill="#FFFFFF" mask="url(#mask-2)"></path>
                    <path d="M95.9298552,14.5245889 C97.4414499,13.0340327 99.894448,13.033633 101.406448,14.5253884 C102.918448,16.0155449 102.917638,18.43585 101.406043,19.9264062 C99.8940428,21.4185613 97.4418552,21.4177619 95.9302604,19.9264062 C94.4182604,18.4350506 94.4174499,16.0171438 95.9298552,14.5245889" id="Fill-14" fill="#FFFFFF" mask="url(#mask-2)"></path>
                    <path d="M82.5798799,1.35764929 C84.0910694,-0.13290693 86.544878,-0.13370637 88.0564728,1.35724957 C89.568878,2.84860522 89.568878,5.26931009 88.0572833,6.7598663 C86.5444728,8.25162168 84.0918799,8.2500228 82.5802852,6.75906686 C81.0686904,5.2677112 81.0670694,2.84940466 82.5798799,1.35764929" id="Fill-15" fill="#FFFFFF" mask="url(#mask-2)"></path>
                    <path d="M151.796452,27.7122341 L151.796452,34.0693824 L157.575769,34.0693824 L157.575769,35.9588593 L151.796452,35.9588593 L151.796452,45.2187749 L151.935048,45.1828001 C153.853923,44.6875469 155.789412,44.0392009 157.692887,43.2653428 L157.692887,45.2131788 C155.233405,46.2468549 153.609555,46.9299766 150.77035,47.6854475 C150.768324,47.686247 150.19408,47.8169554 149.861367,47.5583365 C149.702508,47.4344233 149.621863,47.2329644 149.621863,46.9611547 L149.621863,27.7122341 L151.796452,27.7122341 Z" id="Fill-16" fill="#FFFFFF" mask="url(#mask-2)"></path>
                    <path d="M161.674906,27.7356577 L161.674906,36.0098635 L161.844707,35.9071355 C164.088189,34.5424911 166.021247,32.9763878 167.602546,31.2543936 C167.734253,31.4250741 168.703619,32.6825935 168.804932,32.8145011 C167.145015,34.5572807 164.769015,36.4155794 161.726373,38.3398319 L161.676527,38.3722093 L161.627491,44.0570284 C161.627491,45.298559 162.234155,45.9285179 163.430463,45.9285179 L165.52157,45.9285179 C166.237247,45.9285179 166.693157,45.4616448 166.876332,44.5422886 C167.042891,43.7056744 167.188377,42.5504834 167.311168,41.1198852 C167.535274,41.1878376 169.222748,41.7030768 169.373097,41.7494443 C169.187086,44.0550298 168.909082,45.6714978 168.543138,46.5412888 C168.183679,47.3998875 167.418155,47.817595 166.203206,47.817595 L163.030883,47.817595 C161.782298,47.817595 160.874531,47.5625736 160.335138,47.0597257 C159.797367,46.5584767 159.524632,45.6339241 159.524632,44.3124495 L159.524632,27.7356577 L161.674906,27.7356577 Z" id="Fill-17" fill="#FFFFFF" mask="url(#mask-2)"></path>
                    <path d="M174.484678,27.4522561 C174.661774,27.4974245 176.16648,27.8855527 176.344386,27.9315205 C176.266982,28.2688843 175.998705,29.4132829 175.779868,30.0668252 L175.775005,30.0840132 L175.775005,48.2253095 L173.905977,48.2253095 L173.905977,33.7782263 L173.692814,34.2139212 C173.325654,35.0537331 172.537436,36.5115123 172.079095,37.0747179 C171.971703,36.7713303 171.344776,34.9993712 171.314787,34.9158297 C172.666712,32.8057073 173.70335,30.3606195 174.484678,27.4522561" id="Fill-18" fill="#FFFFFF" mask="url(#mask-2)"></path>
                    <path d="M182.209819,44.9923334 C182.296949,45.1110503 183.079493,46.1878962 183.208768,46.3665711 C181.348251,47.2179749 179.954179,47.8395396 177.929129,48.1936916 C177.863478,48.0633829 177.200889,46.7554987 177.092686,46.5436471 C179.457339,46.0979592 180.81048,45.5607354 182.209819,44.9923334" id="Fill-19" fill="#FFFFFF" mask="url(#mask-2)"></path>
                    <path d="M179.848165,38.5709901 L189.397148,38.5709901 L189.397148,37.425792 L179.848165,37.425792 L179.848165,38.5709901 Z M179.848165,40.9585182 L189.397148,40.9585182 L189.397148,39.6970016 L179.848165,39.6970016 L179.848165,40.9585182 Z M179.848165,43.4143984 L189.397148,43.4143984 L189.397148,42.0837302 L179.848165,42.0837302 L179.848165,43.4143984 Z M178.284293,44.7018968 L190.983715,44.7018968 L190.983715,36.1382936 L178.284293,36.1382936 L178.284293,44.7018968 Z" id="Fill-20" fill="#FFFFFF" mask="url(#mask-2)"></path>
                    <path d="M186.962062,45.0064036 C188.35897,45.2834096 189.435323,45.6387608 190.784817,46.0860475 C190.784817,46.0860475 191.893995,46.4489934 192.081222,46.5101506 C192.014355,46.688026 191.51792,48.0083015 191.45389,48.1789819 C191.276389,48.1158262 189.84625,47.6085814 189.84625,47.6085814 C188.883368,47.2504322 187.786753,46.845116 186.260974,46.3906343 C186.355398,46.2031655 186.897222,45.1339143 186.962062,45.0064036" id="Fill-21" fill="#FFFFFF" mask="url(#mask-2)"></path>
                    <path d="M187.494889,33.774349 L190.18415,33.774349 L190.18415,32.0951249 L187.494889,32.0951249 L187.494889,33.774349 Z M183.242972,30.7852422 L185.954522,30.7852422 L185.954522,29.3378557 L183.242972,29.3378557 L183.242972,30.7852422 Z M183.242972,33.774349 L185.954522,33.774349 L185.954522,32.0951249 L183.242972,32.0951249 L183.242972,33.774349 Z M178.967144,33.774349 L181.678694,33.774349 L181.678694,32.0951249 L178.967144,32.0951249 L178.967144,33.774349 Z M187.495295,30.7852422 L187.495295,29.337456 L191.097996,29.337456 L191.097996,27.8884707 L178.208916,27.8884707 L178.208916,29.337456 L181.678694,29.337456 L181.678694,30.7852422 L177.238739,30.7852422 L177.238739,35.0850312 L191.911745,35.0850312 L191.911745,30.7852422 L187.495295,30.7852422 Z" id="Fill-22" fill="#FFFFFF" mask="url(#mask-2)"></path>
                    <path d="M202.207367,41.948385 C202.518601,43.1239618 202.686376,44.1568385 202.859419,45.2460757 C202.859419,45.2460757 203.032057,46.2921432 203.059614,46.4600257 C202.900755,46.5035951 201.7008,46.8301665 201.495742,46.886527 C201.297573,45.048614 201.134661,43.572048 200.867194,42.1882171 C201.041453,42.1570389 202.041618,41.9779643 202.207367,41.948385" id="Fill-23" fill="#FFFFFF" mask="url(#mask-2)"></path>
                    <path d="M196.114302,42.4499538 C196.288561,42.4635443 197.450423,42.556679 197.634002,42.5722681 C197.436239,44.953001 197.112441,46.7873165 196.671526,48.0356423 C196.49362,47.983279 195.185462,47.5951508 195.005529,47.5427874 C195.568021,45.9227219 195.940854,44.2107208 196.114302,42.4499538" id="Fill-24" fill="#FFFFFF" mask="url(#mask-2)"></path>
                    <path d="M199.894546,42.3558996 C200.109735,43.4978999 200.226853,44.8597463 200.226853,46.1608352 C200.226853,46.6257096 200.208617,47.0781928 200.178628,47.5138877 C200.00599,47.5218821 198.569367,47.5866367 198.361878,47.5966297 C198.37282,47.4315453 198.401998,47.0254297 198.401998,47.0254297 L198.472512,45.5948315 L198.481833,44.7909944 C198.487101,44.4804119 198.492774,44.1534409 198.492774,43.8252707 C198.492774,43.3555996 198.478591,42.8883268 198.438065,42.4566291 C198.618403,42.4442378 199.729202,42.3666921 199.894546,42.3558996" id="Fill-25" fill="#FFFFFF" mask="url(#mask-2)"></path>
                    <path d="M195.944542,32.8492768 C197.052504,30.9194282 198.094411,29.0955054 198.636639,27.3531256 C198.803198,27.3946964 200.337082,27.7772286 200.550651,27.8303913 C199.836594,29.5979536 198.680407,31.6744994 197.430606,33.4160799 L197.307003,33.588759 L197.521788,33.588759 C198.234628,33.588759 199.520092,33.5395934 200.075694,33.4480575 L200.12554,33.4404628 L200.485405,32.8752586 C200.860264,32.3044583 201.322253,31.5921571 201.705623,30.6368261 C201.866103,30.6867911 203.117525,31.0761185 203.313262,31.1372756 C201.71008,34.898242 199.639236,37.6247327 198.177487,39.2531924 L198.002013,39.447856 L198.265833,39.4358644 C199.543191,39.3731084 200.279941,39.2855697 201.079506,39.0977012 L201.187709,39.0717194 L201.161773,38.9641947 C201.158936,38.9550012 200.934426,38.0588287 200.629675,37.3065555 C200.82136,37.2545919 201.876639,36.9683923 202.034688,36.9252225 C202.52626,38.1871389 202.79697,38.9178272 203.179934,40.4127803 C202.561112,40.5522826 199.163874,41.2809724 195.401908,41.3517228 C195.386913,41.1738474 195.267364,39.7888173 195.259664,39.6952828 C196.528917,38.5592783 198.305142,36.6122417 199.32557,35.2356057 L199.465382,35.0469378 L196.307649,35.2384038 C196.307649,35.2384038 195.851739,35.2615875 195.695716,35.2695819 C195.679506,35.0861104 195.549015,33.6111433 195.544152,33.5503858 C195.574546,33.4956242 195.944542,32.8492768 195.944542,32.8492768" id="Fill-26" fill="#FFFFFF" mask="url(#mask-2)"></path>
                    <path d="M214.148479,33.8673239 L212.165574,33.8673239 L212.246625,33.7090347 C212.589469,33.0311095 212.89422,32.0529944 213.153177,30.808266 C212.966355,30.7722912 211.627803,30.5140721 211.446655,30.4792964 C211.198235,31.837945 210.879301,32.9579607 210.496336,33.8025692 L210.467563,33.8673239 L209.324749,33.8673239 L209.30165,33.7865804 C208.953537,32.5346571 208.585972,31.4410229 208.208681,30.5196681 C208.058332,30.5444508 206.783811,30.748308 206.55849,30.7846826 C206.973469,31.6668648 207.345897,32.6517751 207.659563,33.7274219 L207.700089,33.8673239 L205.679496,33.8673239 L205.679496,29.5695335 L214.148479,29.5695335 L214.148479,33.8673239 Z M210.81446,38.2238731 L214.148479,38.2238731 L214.148479,35.3862602 L210.81446,35.3862602 L210.81446,38.2238731 Z M205.679901,38.2238731 L209.184531,38.2238731 L209.184531,35.3862602 L205.679901,35.3862602 L205.679901,38.2238731 Z M203.905297,28.0505971 L203.905297,48.2252695 L205.679496,48.2252695 C205.681117,48.011819 205.703406,39.7428095 205.703406,39.7428095 L207.428974,39.7428095 L207.428974,42.0771748 C207.428974,43.0920641 207.615796,43.7831802 207.98174,44.1305369 C208.350115,44.4786931 209.020809,44.6557691 209.972749,44.6557691 L213.057132,44.6557691 L213.057132,43.1356336 L210.067173,43.1356336 C209.609237,43.1356336 209.06255,42.936573 209.06255,41.9844398 L209.06255,39.7428095 L214.171173,39.7428095 L214.171173,45.298519 C214.171173,45.6754551 214.009477,46.1255399 213.233012,46.1255399 C213.233012,46.1255399 211.266317,46.0308062 210.992366,46.0172157 C211.066528,46.2634433 211.51879,47.7655914 211.55891,47.8994976 L213.732284,47.8994976 C214.63073,47.8994976 215.226047,47.7272183 215.501214,47.3854576 C215.780839,47.0361023 215.923488,46.3573775 215.923488,45.3676706 L215.923488,28.0505971 L203.905297,28.0505971 Z" id="Fill-27" fill="#FFFFFF" mask="url(#mask-2)"></path>
                </g>
            </g>
        </g>
    </g>
</svg>