<?xml version="1.0" encoding="UTF-8" standalone="no"?>
<svg width="233px" height="51px" viewBox="0 0 233 51" version="1.1" xmlns="http://www.w3.org/2000/svg" xmlns:xlink="http://www.w3.org/1999/xlink">
    <!-- Generator: Sketch 46.2 (44496) - http://www.bohemiancoding.com/sketch -->
    <title>logo</title>
    <desc>Created with Sketch.</desc>
    <defs>
        <filter x="-0.2%" y="-3.0%" width="100.4%" height="104.0%" filterUnits="objectBoundingBox" id="filter-1">
            <feOffset dx="0" dy="-1" in="SourceAlpha" result="shadowOffsetOuter1"></feOffset>
            <feColorMatrix values="0 0 0 0 0   0 0 0 0 0   0 0 0 0 0  0 0 0 1 0" type="matrix" in="shadowOffsetOuter1" result="shadowMatrixOuter1"></feColorMatrix>
            <feMerge>
                <feMergeNode in="shadowMatrixOuter1"></feMergeNode>
                <feMergeNode in="SourceGraphic"></feMergeNode>
            </feMerge>
        </filter>
    </defs>
    <g id="介紹頁" stroke="none" stroke-width="1" fill="none" fill-rule="evenodd">
        <g id="聯絡我們" transform="translate(-40.000000, -24.000000)" fill="#FFFFFF">
            <g id="logo" filter="url(#filter-1)" transform="translate(40.000000, 25.000000)">
                <path d="M0,19.4337791 L16.0715116,19.4337791 L16.0715116,22.5111047 L3.30348837,22.5111047 L3.30348837,28.2006395 L14.5116279,28.2006395 L14.5116279,31.2773837 L3.30348837,31.2773837 L3.30348837,37.6488953 L16.0715116,37.6488953 L16.0715116,40.7250581 L0,40.7250581 L0,19.4337791 Z M38.0200581,19.4347674 C37.5625,20.1219767 25.8375,37.6644186 25.8375,37.6644186 L38.0200581,37.6644186 L38.0200581,40.7248837 L19.5072674,40.7248837 C19.9747093,40.0382558 31.8991279,22.4963953 31.8991279,22.4963953 L19.5072674,22.4963953 L19.5072674,19.4347674 L38.0200581,19.4347674 Z M73.3387209,27.7968605 L73.3387209,40.7247674 L67.649186,40.7247674 L67.649186,21.2445349 L71.5334884,22.9265116 C72.7834884,21.0916279 74.8480233,19.4346512 77.3910465,19.4346512 C79.7172093,19.4346512 81.8288372,20.3387209 83.4672093,21.7613953 L80.1910465,26.2875581 C79.2846512,25.0387209 78.0776744,24.3073256 76.8282558,24.3073256 C74.8898837,24.3073256 73.3387209,25.8573256 73.3387209,27.7968605 Z M86.902907,40.7251163 L86.902907,19.435 L92.5918605,19.435 L92.5918605,40.7251163 L86.902907,40.7251163 Z M107.940814,40.7249419 C102.035,40.7249419 96.7355814,36.2825 96.7355814,30.0801744 C96.7355814,23.8702907 102.035,19.4301744 107.984419,19.4301744 C110.571047,19.4301744 112.985,20.2918023 115.615233,22.2290116 L113.538488,25.2575 C111.857674,24.1755233 110.097209,23.6534302 107.984419,23.6534302 C105.486163,23.6534302 102.597209,25.5075 102.597209,30.0801744 C102.597209,34.6452907 105.442558,36.5051744 107.984419,36.5051744 C110.097209,36.5051744 112.122791,35.9400581 113.846628,34.9464535 L115.41,38.4301744 C113.208256,39.9825 110.829767,40.7249419 107.940814,40.7249419 Z M129.213023,36.505 C131.583953,36.505 133.255465,35.9613953 135.500233,34.6451163 L137.184535,37.8701163 C134.813023,39.8061628 132.217674,40.7247674 128.98686,40.7247674 C122.701395,40.7247674 117.993837,36.282907 117.993837,30.0805814 C117.993837,23.8701163 122.785698,19.43 128.735698,19.43 C134.768837,19.43 138.99093,24.0416279 138.99093,30.3346512 L138.99093,31.6282558 L123.729302,31.6282558 C124.104302,34.7224419 126.685116,36.505 129.213023,36.505 Z M128.98686,23.6532558 C126.831628,23.6532558 124.375233,25.0363953 123.729302,28.3532558 L133.429302,28.3532558 C133.212442,25.2486047 131.143256,23.6532558 128.98686,23.6532558 Z M40.5460465,24.8194186 C43.2204651,21.542093 47.3995349,19.4304651 52.0553488,19.4304651 C59.4710465,19.4304651 64.21,24.9490698 64.21,30.639186 C64.21,36.2409302 59.7698837,40.7252326 54.1251163,40.7252326 C52.9605814,40.7252326 51.8826744,40.5502326 50.890814,40.2537209 L50.890814,49.6095349 L45.2006977,49.6095349 L45.2006977,25.3793023 C44.3384884,25.9426744 43.5646512,26.542093 42.8733721,27.2769767 L40.5460465,24.8194186 Z M50.890814,23.4409302 L50.890814,36.67 C51.365814,36.8484884 51.9687209,36.9333721 52.5286047,36.9333721 C54.9431395,36.9333721 58.3495349,35.0333721 58.3495349,30.639186 C58.3495349,26.0665116 55.2873256,23.3548837 52.2704651,23.3548837 C51.7977907,23.3548837 51.3210465,23.3990698 50.890814,23.4409302 Z" id="EZPRICE"></path>
                <path d="M92.5888953,8.3019186 C92.5888953,9.86877907 91.3156395,11.1443605 89.7470349,11.1443605 C88.179593,11.1443605 86.904593,9.86877907 86.904593,8.3019186 C86.9051744,6.73040698 88.179593,5.45715116 89.7470349,5.45715116 C91.3156395,5.45715116 92.5888953,6.73040698 92.5888953,8.3019186 Z M97.4461628,13.1575 C97.4461628,14.726686 96.172907,15.9999419 94.6019767,15.9999419 C93.0339535,15.9999419 91.7589535,14.726686 91.7589535,13.1575 C91.7589535,11.5871512 93.0339535,10.3127326 94.6019767,10.3127326 C96.1717442,10.3150581 97.4461628,11.5871512 97.4461628,13.1575 Z M84.891686,16.0224419 C83.3213372,16.0224419 82.0480814,14.7497674 82.0480814,13.1811628 C82.0480814,11.610814 83.3213372,10.3369767 84.891686,10.3369767 C86.4614535,10.3369767 87.7358721,11.610814 87.7358721,13.1811628 C87.7347093,14.7497674 86.4620349,16.0224419 84.891686,16.0224419 Z M82.0482558,3.44639535 C82.0482558,1.8772093 83.3203488,0.603953488 84.8918605,0.603953488 C86.4610465,0.603953488 87.7354651,1.8772093 87.7354651,3.44639535 C87.7354651,5.0155814 86.4610465,6.28651163 84.8918605,6.28651163 C83.3209302,6.28651163 82.0482558,5.0155814 82.0482558,3.44639535 Z M94.6022093,0.581395349 C96.1713953,0.581395349 97.4463953,1.85348837 97.4463953,3.42383721 C97.4463953,4.99186047 96.1713953,6.26686047 94.6022093,6.26686047 C93.0324419,6.26686047 91.7586047,4.99186047 91.7586047,3.42383721 C91.7597674,1.85639535 93.0324419,0.581395349 94.6022093,0.581395349 Z" id="Combined-Shape"></path>
                <path d="M158.426802,24.6082558 L158.426802,26.0605814 L161.098895,26.0605814 L161.18843,25.9698837 L161.18843,24.6774419 L161.098895,24.6082558 L158.426802,24.6082558 Z M162.591919,40.7251163 C160.690174,39.9117442 159.080872,39.4146512 157.859942,39.1646512 L158.245988,37.3727907 C159.693081,37.6681395 161.394244,38.2105814 163.336686,39.0501163 L162.591919,40.7251163 Z M154.012849,26.0605814 L156.684942,26.0605814 L156.684942,24.6082558 L154.012849,24.6082558 L154.012849,26.0605814 Z M154.012849,23.0477907 L156.684942,23.0477907 L156.684942,21.8727907 L154.012849,21.8727907 L154.012849,23.0477907 Z M150.416919,33.304186 L160.349477,33.304186 L160.349477,32.2140698 L150.416919,32.2140698 L150.416919,33.304186 Z M160.349477,34.704186 L150.416919,34.704186 L150.416919,35.5425581 C150.393081,35.6105814 150.416919,35.632093 150.484942,35.6559302 L160.258198,35.6559302 L160.349477,35.5425581 L160.349477,34.704186 Z M150.416919,30.832093 L160.349477,30.832093 L160.349477,29.9727907 C160.349477,29.9053488 160.326802,29.8826744 160.258198,29.8826744 L150.484942,29.8826744 C150.416919,29.8826744 150.393081,29.9053488 150.416919,29.9727907 L150.416919,30.832093 Z M152.244826,26.0605814 L152.244826,24.6082558 L149.558198,24.6082558 C149.491337,24.6082558 149.4675,24.632093 149.491337,24.6774419 L149.491337,25.9698837 L149.558198,26.0605814 L152.244826,26.0605814 Z M162.186686,36.6710465 C162.186686,36.9663953 162.026221,37.1227907 161.70936,37.1227907 L149.037267,37.1227907 C148.741919,37.1227907 148.584942,36.9663953 148.584942,36.6710465 L148.584942,28.8425581 C148.584942,28.5483721 148.741919,28.390814 149.037267,28.390814 L161.70936,28.390814 C162.026221,28.390814 162.186686,28.5483721 162.186686,28.8425581 L162.186686,36.6710465 Z M158.426802,23.0477907 L162.681453,23.0477907 C162.840756,23.0477907 162.931453,23.1152326 162.931453,23.2751163 L162.931453,27.3756977 C162.931453,27.5309302 162.840756,27.6222093 162.681453,27.6222093 L147.972151,27.6222093 C147.812849,27.6222093 147.744826,27.5309302 147.744826,27.3756977 L147.744826,23.2751163 C147.744826,23.1152326 147.812849,23.0477907 147.972151,23.0477907 L152.244826,23.0477907 L152.244826,21.8727907 L148.062849,21.8727907 L148.062849,20.3134884 L162.840756,20.3134884 L162.840756,21.8727907 L158.426802,21.8727907 L158.426802,23.0477907 Z M147.540174,38.9373256 C149.67157,38.437907 151.320407,37.8710465 152.543663,37.3274419 L153.151221,39.0501163 C151.816919,39.685 150.12157,40.2751163 148.062849,40.7251163 L147.540174,38.9373256 Z M144.690174,29.1594186 L144.191919,29.9966279 L142.427965,29.3425581 C144.283779,26.3547674 145.369244,23.1844186 145.616919,19.8605814 L147.472151,20.087907 C147.222733,21.8274419 146.905872,23.3861628 146.520407,24.6774419 L146.520407,40.5443023 L144.690174,40.5443023 L144.690174,29.1594186 Z M176.100291,39.3238372 L176.100291,40.3616279 L174.176453,40.3616279 L174.176453,32.2366279 C174.153779,32.0563953 174.267733,31.9424419 174.490988,31.9424419 L184.47064,31.9424419 C184.718895,31.9424419 184.855523,32.0790698 184.855523,32.305814 L184.855523,40.3616279 L182.931686,40.3616279 L182.931686,39.3238372 L176.100291,39.3238372 Z M176.100291,37.4877907 L182.931686,37.4877907 L182.931686,34.025 C182.931686,33.8686047 182.843314,33.7802326 182.639826,33.7802326 L176.369477,33.7802326 C176.167151,33.7802326 176.077616,33.8686047 176.100291,34.025 L176.100291,37.4877907 Z M172.590407,30.4912791 C174.992151,29.5680233 176.981686,28.5488372 178.517733,27.4616279 C177.525291,26.2877907 176.799709,25.1069767 176.369477,23.9755814 C175.828779,24.7459302 175.125872,25.4930233 174.314244,26.2651163 L173.067151,24.9261628 C174.628779,23.6372093 175.486919,22.6197674 176.392151,19.7232558 L178.224709,19.5877907 L177.996802,20.3593023 L183.931105,20.3593023 L185.30843,21.2831395 C184.517151,23.2319767 183.657267,24.7459302 182.752035,25.877907 L181.171802,27.622093 C182.344477,28.5953488 184.153779,29.4988372 186.53343,30.2895349 L185.535756,31.9651163 C183.296221,31.1953488 181.353198,30.1313953 179.811337,28.7982558 C177.794477,30.1313953 175.735756,31.2406977 173.67936,32.1017442 L172.590407,30.4912791 Z M177.749128,22.1906977 C178.132849,23.7715116 178.813081,25.1069767 179.675872,26.1511628 L179.835174,26.3784884 C180.852616,25.3563953 181.822384,24.0668605 182.72936,22.5959302 C182.752035,22.5063953 182.752035,22.4395349 182.752035,22.3930233 C182.752035,22.2563953 182.707849,22.1906977 182.617151,22.1906977 L177.749128,22.1906977 Z M170.577035,28.6848837 L170.577035,40.6127907 L168.744477,40.6127907 L168.744477,29.7930233 C168.290988,31.0354651 167.749709,32.3517442 167.138663,33.7563953 L165.392151,32.9418605 C166.731105,30.1313953 167.70436,27.7343023 168.290988,25.7651163 L165.731686,25.7651163 L165.731686,23.8395349 L168.744477,23.8395349 L168.744477,19.6563953 L170.577035,19.6563953 L170.577035,23.8395349 L172.65843,23.8395349 L172.65843,25.7651163 L170.577035,25.7651163 L170.577035,25.8552326 C171.57064,27.0575581 172.545058,28.3226744 173.453198,29.6116279 L171.909012,30.7639535 L170.577035,28.6848837 Z M201.352267,29.6111047 L201.352267,27.7797093 L208.435988,27.7797093 L208.435988,29.6111047 L201.352267,29.6111047 Z M202.458663,23.1605233 C202.006337,24.4971512 201.285407,25.6971512 200.356337,26.8087791 L199.022035,25.8779651 L199.022035,27.2826163 C199.022035,27.6221512 198.864477,27.8035465 198.501105,27.8035465 L195.355756,27.8035465 L195.355756,29.1593605 L199.204012,29.1593605 L199.204012,30.9000581 L189.74064,30.9000581 C189.334826,30.9000581 189.108081,30.6768023 189.108081,30.2221512 L189.108081,20.8529651 C189.108081,20.4488953 189.334826,20.2227326 189.74064,20.2227326 L199.294709,20.2227326 L199.137151,21.9622674 L195.355756,21.9622674 L195.355756,23.3169186 L198.501105,23.3169186 C198.864477,23.3169186 199.022035,23.4988953 199.022035,23.8180814 L199.022035,25.4471512 C200.605174,23.4988953 200.966221,22.2564535 201.305756,19.8151744 L203.114477,19.9959884 L202.91157,21.3297093 L208.97843,21.3297093 L208.97843,23.1605233 L202.458663,23.1605233 Z M193.613895,29.1593605 L193.613895,27.8035465 L190.849942,27.8035465 L190.849942,28.8878488 C190.849942,29.0698256 190.94064,29.1593605 191.09936,29.1593605 L193.613895,29.1593605 Z M197.367965,25.0169186 C197.367965,24.9262209 197.322616,24.8820349 197.208663,24.8820349 L190.849942,24.8820349 L190.849942,26.2425 L197.208663,26.2425 C197.322616,26.2425 197.367965,26.1971512 197.367965,26.0820349 L197.367965,25.0169186 Z M190.849942,23.3169186 L193.613895,23.3169186 L193.613895,21.9622674 L191.09936,21.9622674 C190.94064,21.9622674 190.849942,22.0535465 190.849942,22.2111047 L190.849942,23.3169186 Z M190.213895,38.3459884 L190.213895,32.6907558 C190.213895,32.2605233 190.419709,32.0791279 190.827267,32.0791279 L206.87436,32.0791279 C207.305174,32.0791279 207.506919,32.2605233 207.506919,32.6907558 L207.506919,38.3459884 L209.406919,38.3459884 L209.406919,40.0948256 L188.362733,40.0948256 L188.362733,38.3459884 L190.213895,38.3459884 Z M202.302849,38.3459884 L205.677849,38.3459884 L205.677849,34.0488953 C205.677849,33.9140116 205.584826,33.8209884 205.427849,33.8209884 L202.302849,33.8209884 L202.302849,38.3459884 Z M197.254012,38.3459884 L200.468547,38.3459884 L200.468547,33.8209884 L197.254012,33.8209884 L197.254012,38.3459884 Z M192.052267,38.3459884 L195.421453,38.3459884 L195.421453,33.8209884 L192.302267,33.8209884 C192.141802,33.8209884 192.052267,33.9140116 192.052267,34.0715698 L192.052267,38.3459884 Z M222.644884,25.0386047 L228.46,25.0386047 C228.686163,25.017093 228.822209,25.1531395 228.867558,25.400814 C229.548953,28.595 230.68093,29.8362791 232.511744,31.3531395 L230.908256,32.4194186 C229.276279,30.8787209 228.437326,29.8159302 227.667558,27.1269767 C227.643721,26.9665116 227.578605,26.8769767 227.46407,26.8769767 L222.644884,26.8769767 L222.644884,25.0386047 Z M224.118721,21.4659302 L224.118721,19.6560465 L226.040233,19.6560465 L226.040233,21.4659302 L230.972791,21.4659302 L232.558256,22.2566279 C232.467558,23.4769767 232.150698,24.9037209 231.585,26.5827907 L229.776279,25.97 L230.499535,23.4769767 C230.499535,23.2967442 230.431512,23.2095349 230.272209,23.2095349 L220.380349,23.2095349 C220.269302,23.2095349 220.201279,23.2752326 220.201279,23.3862791 L220.201279,25.9926744 L218.277442,25.9926744 L218.277442,21.8048837 C218.277442,21.5810465 218.392558,21.4659302 218.640814,21.4659302 L224.118721,21.4659302 Z M224.118721,38.0293023 L224.118721,32.9862791 L220.358837,32.9862791 L220.358837,31.1490698 L229.571628,31.1490698 L229.571628,32.9862791 L226.040233,32.9862791 L226.040233,38.0293023 L232.240233,38.0293023 L232.240233,39.8665116 L217.983256,39.8665116 L217.983256,38.0293023 L224.118721,38.0293023 Z M217.283837,31.6926744 C218.753605,30.1543023 219.792558,28.345 220.358837,26.3787209 L222.100116,26.8996512 C221.283256,29.3659302 220.201279,31.3077907 218.932674,32.6682558 L217.283837,31.6926744 Z M213.863488,30.6513953 L213.863488,25.6746512 L211.60186,25.6746512 L211.60186,23.7484884 L213.863488,23.7484884 L213.863488,19.6560465 L215.786163,19.6560465 L215.786163,23.7484884 L217.643721,23.7484884 L217.643721,25.6746512 L215.786163,25.6746512 L215.786163,29.272907 L216.83093,28.367093 L218.118721,29.6775581 L215.786163,31.4897674 L215.786163,38.4153488 C215.786163,39.2101163 215.310581,40.567093 213.863488,40.567093 C213.27686,40.567093 212.485,40.4322093 211.512326,40.1153488 L211.623372,38.1211628 C212.641977,38.572907 213.161744,38.6647674 213.367558,38.6647674 C213.568721,38.6647674 213.863488,38.5287209 213.863488,37.8938372 L213.863488,32.7601163 L212.50593,33.5723256 L211.331512,32.1246512 L213.863488,30.6513953 Z" id="價格監控"></path>
            </g>
        </g>
    </g>
</svg>