<?xml version="1.0" encoding="UTF-8" standalone="no"?>
<svg width="50px" height="50px" viewBox="0 0 50 50" version="1.1" xmlns="http://www.w3.org/2000/svg" xmlns:xlink="http://www.w3.org/1999/xlink">
    <!-- Generator: Sketch 46.2 (44496) - http://www.bohemiancoding.com/sketch -->
    <title>lowicon</title>
    <desc>Created with Sketch.</desc>
    <defs></defs>
    <g id="品牌端admin" stroke="none" stroke-width="1" fill="none" fill-rule="evenodd">
        <g id="01品牌端-首頁" transform="translate(-745.000000, -2168.000000)">
            <g id="lowicon" transform="translate(745.000000, 2168.000000)">
                <rect id="Rectangle-11-Copy" x="0" y="0" width="50" height="50"></rect>
                <path d="M22.4279848,18.8458222 C22.4279848,17.9107111 23.108207,17.1880444 24.4684292,17.0604889 L24.4684292,20.8224889 C22.8317626,20.2911556 22.4279848,19.7387111 22.4279848,18.8458222 Z M26.1473848,23.7768 C27.7838292,24.2868 28.251607,24.8605778 28.251607,25.7959111 C28.251607,26.8161333 27.507607,27.4961333 26.1473848,27.6448 L26.1473848,23.7768 Z M26.2323626,29.7915556 L26.2323626,31.0666667 C26.2323626,31.5768889 25.8285848,31.9808889 25.3185848,31.9808889 C24.8083626,31.9808889 24.3832515,31.5768889 24.3832515,31.0666667 L24.3832515,29.7491111 C22.7892515,29.5791111 21.322807,29.0051111 20.0263626,28.0913333 C19.6650292,27.8575556 19.4523626,27.5175556 19.4523626,27.0711111 C19.4523626,26.4122222 19.9625848,25.902 20.6214737,25.902 C20.8763626,25.902 21.1314737,25.9871111 21.322807,26.136 C22.3216959,26.8586667 23.2994737,27.3473333 24.4683626,27.56 L24.4683626,23.3728889 C21.3652515,22.5651111 19.9201404,21.3964444 19.9201404,18.9946667 C19.9201404,16.7204444 21.7265848,15.1477778 24.3832515,14.9351111 L24.3832515,14.4888889 C24.3832515,13.9786667 24.8083626,13.5748889 25.3185848,13.5748889 C25.8285848,13.5748889 26.2323626,13.9786667 26.2323626,14.4888889 L26.2323626,14.9564444 C27.4863626,15.1051111 28.5490292,15.5091111 29.526807,16.1253333 C29.866807,16.3166667 30.1643626,16.6355556 30.1643626,17.1455556 C30.1643626,17.8044444 29.6330292,18.3146667 28.9741404,18.3146667 C28.7616959,18.3146667 28.5490292,18.2506667 28.3365848,18.1231111 C27.5925848,17.6768889 26.8701404,17.3582222 26.1474737,17.188 L26.1474737,21.2686667 C29.3779181,22.0764444 30.7594737,23.3728889 30.7594737,25.6471111 C30.7594737,27.9848889 28.9316959,29.5366667 26.2323626,29.7915556 L26.2323626,29.7915556 Z M34.5672515,31.3333333 L34.5672515,6 L15.6783626,6 L15.6783626,31.3333333 L6.78947368,31.3333333 L25.0116959,44 L43.4561404,31.3333333 L34.5672515,31.3333333 Z" id="Fill-5" fill="#E2E2E2"></path>
            </g>
        </g>
    </g>
</svg>