<?xml version="1.0" encoding="UTF-8" standalone="no"?>
<svg width="271px" height="59px" viewBox="0 0 271 59" version="1.1" xmlns="http://www.w3.org/2000/svg" xmlns:xlink="http://www.w3.org/1999/xlink">
    <!-- Generator: Sketch 46.2 (44496) - http://www.bohemiancoding.com/sketch -->
    <title>main_logo_white</title>
    <desc>Created with Sketch.</desc>
    <defs>
        <filter x="-0.4%" y="-1.7%" width="101.5%" height="106.8%" filterUnits="objectBoundingBox" id="filter-1">
            <feOffset dx="2" dy="2" in="SourceAlpha" result="shadowOffsetOuter1"></feOffset>
            <feColorMatrix values="0 0 0 0 0   0 0 0 0 0   0 0 0 0 0  0 0 0 0.7 0" type="matrix" in="shadowOffsetOuter1" result="shadowMatrixOuter1"></feColorMatrix>
            <feMerge>
                <feMergeNode in="shadowMatrixOuter1"></feMergeNode>
                <feMergeNode in="SourceGraphic"></feMergeNode>
            </feMerge>
        </filter>
    </defs>
    <g id="介紹頁" stroke="none" stroke-width="1" fill="none" fill-rule="evenodd">
        <g id="login" transform="translate(-505.000000, -55.000000)" fill="#FFFFFF">
            <g id="logo-copy" filter="url(#filter-1)" transform="translate(505.000000, 55.000000)">
                <path d="M0,22.0043827 L18.6164188,22.0043827 L18.6164188,25.5732381 L3.82659233,25.5732381 L3.82659233,32.1715412 L16.8095291,32.1715412 L16.8095291,35.7397224 L3.82659233,35.7397224 L3.82659233,43.1289319 L18.6164188,43.1289319 L18.6164188,46.6964388 L0,46.6964388 L0,22.0043827 Z M44.0404949,22.0055289 C43.5104829,22.8025036 29.9288413,43.1469346 29.9288413,43.1469346 L44.0404949,43.1469346 L44.0404949,46.6962365 L22.596223,46.6962365 C23.1376838,45.899936 36.9503218,25.5561793 36.9503218,25.5561793 L22.596223,25.5561793 L22.596223,22.0055289 L44.0404949,22.0055289 Z M84.9518314,31.703268 L84.9518314,46.6961016 L78.3613646,46.6961016 L78.3613646,24.1043638 L82.8607421,26.0549965 C84.3086783,23.9270336 86.7001302,22.0053941 89.6458385,22.0053941 C92.3403468,22.0053941 94.7863488,23.0538676 96.6841554,24.7037805 L92.8892156,29.9528905 C91.8392935,28.5045811 90.4411933,27.6563627 88.9939305,27.6563627 C86.7486192,27.6563627 84.9518314,29.4539384 84.9518314,31.703268 Z M100.663892,46.6965062 L100.663892,22.0057986 L107.253686,22.0057986 L107.253686,46.6965062 L100.663892,46.6965062 Z M125.03313,46.6963039 C118.192137,46.6963039 112.05356,41.5442873 112.05356,34.3512873 C112.05356,27.1495219 118.192137,22.0002023 125.083639,22.0002023 C128.079857,22.0002023 130.876058,22.9994548 133.922785,25.2460874 L131.51719,28.758305 C129.570221,27.5035081 127.530988,26.8980231 125.083639,26.8980231 C122.189787,26.8980231 118.843371,29.0482365 118.843371,34.3512873 C118.843371,39.6455726 122.139278,41.8025287 125.083639,41.8025287 C127.530988,41.8025287 129.877318,41.1471485 131.874123,39.994839 L133.685054,44.0350018 C131.134666,45.8352746 128.379546,46.6963039 125.03313,46.6963039 Z M149.673772,41.8023264 C152.420136,41.8023264 154.35633,41.1718938 156.956554,39.6453703 L158.907564,43.3854876 C156.160526,45.6307717 153.154206,46.6961016 149.411796,46.6961016 C142.131034,46.6961016 136.678039,41.5447593 136.678039,34.3517592 C136.678039,27.1493196 142.228686,22 149.120862,22 C156.109343,22 161,27.3482261 161,34.6464106 L161,36.1466379 L143.321709,36.1466379 C143.75609,39.7350469 146.745573,41.8023264 149.673772,41.8023264 Z M149.411796,26.8978208 C146.915285,26.8978208 144.069922,28.5018841 143.321709,32.3485344 L154.557694,32.3485344 C154.306494,28.7479888 151.909654,26.8978208 149.411796,26.8978208 Z M46.966471,28.2502504 C50.064381,24.4494498 54.9052021,22.0005394 60.2982594,22.0005394 C68.8882251,22.0005394 74.377587,28.4006103 74.377587,34.9995877 C74.377587,41.4960777 69.2343829,46.696641 62.6957724,46.696641 C61.3468346,46.696641 60.0982421,46.4936889 58.9493216,46.1498166 L58.9493216,57 L52.3581813,57 L52.3581813,28.8995623 C51.3594421,29.5529197 50.4630685,30.2480813 49.6623261,31.1003452 L46.966471,28.2502504 Z M58.9493216,26.6515812 L58.9493216,41.9936812 C59.4995374,42.2006789 60.197914,42.2991208 60.8464548,42.2991208 C63.6433287,42.2991208 67.5891233,40.0956408 67.5891233,34.9995877 C67.5891233,29.696537 64.0420163,26.5517908 60.5474391,26.5517908 C59.9999172,26.5517908 59.447681,26.6030346 58.9493216,26.6515812 Z" id="EZPRICE"></path>
                <path d="M107.321781,9 C107.321781,10.826527 105.833397,12.313503 103.999762,12.313503 C102.167487,12.313503 100.677064,10.826527 100.677064,9 C100.677743,7.16805103 102.167487,5.68378604 103.999762,5.68378604 C105.833397,5.68378604 107.321781,7.16805103 107.321781,9 Z M112.999728,14.6602682 C112.999728,16.4895062 111.511344,17.9737712 109.674991,17.9737712 C107.842036,17.9737712 106.351613,16.4895062 106.351613,14.6602682 C106.351613,12.8296748 107.842036,11.3440543 109.674991,11.3440543 C111.509985,11.3467653 112.999728,12.8296748 112.999728,14.6602682 Z M98.3240577,18 C96.488384,18 95,16.5164128 95,14.6878525 C95,12.857259 96.488384,11.3723163 98.3240577,11.3723163 C100.159052,11.3723163 101.648795,12.857259 101.648795,14.6878525 C101.647436,16.5164128 100.159731,18 98.3240577,18 Z M95.0002039,3.33979954 C95.0002039,1.51056155 96.4872287,0.0262965668 98.3242616,0.0262965668 C100.158576,0.0262965668 101.648319,1.51056155 101.648319,3.33979954 C101.648319,5.16903752 100.158576,6.65059152 98.3242616,6.65059152 C96.4879083,6.65059152 95.0002039,5.16903752 95.0002039,3.33979954 Z M109.675263,0 C111.509577,0 113,1.48290949 113,3.31350297 C113,5.14138546 111.509577,6.62768369 109.675263,6.62768369 C107.840269,6.62768369 106.351205,5.14138546 106.351205,3.31350297 C106.352564,1.48629822 107.840269,0 109.675263,0 Z" id="Combined-Shape"></path>
                <path d="M183.46082,27.7003977 L183.46082,29.349415 L186.544108,29.349415 L186.647421,29.2464339 L186.647421,27.7789538 L186.544108,27.7003977 L183.46082,27.7003977 Z M188.266886,46 C186.072491,45.0764711 184.215541,44.5120557 182.806728,44.2281977 L183.252181,42.1936616 C184.921961,42.5290102 186.884907,43.1449161 189.126262,44.0981511 L188.266886,46 Z M178.367625,29.349415 L181.450913,29.349415 L181.450913,27.7003977 L178.367625,27.7003977 L178.367625,29.349415 Z M178.367625,25.9285954 L181.450913,25.9285954 L181.450913,24.5944626 L178.367625,24.5944626 L178.367625,25.9285954 Z M174.218334,37.5740369 L185.679365,37.5740369 L185.679365,36.3362838 L174.218334,36.3362838 L174.218334,37.5740369 Z M185.679365,39.163642 L174.218334,39.163642 L174.218334,40.1155566 C174.190829,40.1927924 174.218334,40.2172174 174.296825,40.244283 L185.57404,40.244283 L185.679365,40.1155566 L185.679365,39.163642 Z M174.218334,34.7671429 L185.679365,34.7671429 L185.679365,33.7914634 C185.679365,33.7148877 185.653202,33.6891424 185.57404,33.6891424 L174.296825,33.6891424 C174.218334,33.6891424 174.190829,33.7148877 174.218334,33.7914634 L174.218334,34.7671429 Z M176.327529,29.349415 L176.327529,27.7003977 L173.227469,27.7003977 C173.15032,27.7003977 173.122814,27.7274633 173.15032,27.7789538 L173.15032,29.2464339 L173.227469,29.349415 L176.327529,29.349415 Z M187.799294,41.3968787 C187.799294,41.7322272 187.614135,41.9098036 187.248515,41.9098036 L172.626376,41.9098036 C172.285577,41.9098036 172.104444,41.7322272 172.104444,41.3968787 L172.104444,32.5081609 C172.104444,32.1741326 172.285577,31.995236 172.626376,31.995236 L187.248515,31.995236 C187.614135,31.995236 187.799294,32.1741326 187.799294,32.5081609 L187.799294,41.3968787 Z M183.46082,25.9285954 L188.370199,25.9285954 C188.554015,25.9285954 188.65867,26.0051711 188.65867,26.1867082 L188.65867,30.8426403 C188.65867,31.0188964 188.554015,31.1225376 188.370199,31.1225376 L171.397354,31.1225376 C171.213537,31.1225376 171.135046,31.0188964 171.135046,30.8426403 L171.135046,26.1867082 C171.135046,26.0051711 171.213537,25.9285954 171.397354,25.9285954 L176.327529,25.9285954 L176.327529,24.5944626 L171.502008,24.5944626 L171.502008,22.8239805 L188.554015,22.8239805 L188.554015,24.5944626 L183.46082,24.5944626 L183.46082,25.9285954 Z M170.898902,43.9700849 C173.358288,43.4030289 175.260856,42.7593973 176.672353,42.1421711 L177.373405,44.0981511 C175.833774,44.8190185 173.877536,45.4890555 171.502008,46 L170.898902,43.9700849 Z M167.61033,32.8679345 L167.0354,33.8185289 L165,33.075877 C167.141396,29.6834433 168.393898,26.0837271 168.679686,22.3097353 L170.820411,22.5678481 C170.532611,24.542972 170.16699,26.312794 169.722208,27.7789538 L169.722208,45.794698 L167.61033,45.794698 L167.61033,32.8679345 Z M203.853995,44.4089426 L203.853995,45.5872836 L201.634108,45.5872836 L201.634108,36.361897 C201.607944,36.1572552 201.739433,36.0278687 201.997045,36.0278687 L213.512416,36.0278687 C213.798874,36.0278687 213.956527,36.1830004 213.956527,36.4404531 L213.956527,45.5872836 L211.73664,45.5872836 L211.73664,44.4089426 L203.853995,44.4089426 Z M203.853995,42.3242363 L211.73664,42.3242363 L211.73664,38.3924723 C211.73664,38.2148959 211.634669,38.1145554 211.399867,38.1145554 L204.164605,38.1145554 C203.931144,38.1145554 203.827831,38.2148959 203.853995,38.3924723 L203.853995,42.3242363 Z M199.803992,34.3801717 C202.575329,33.3318774 204.871024,32.1746607 206.643445,30.9402083 C205.498281,29.6073957 204.661044,28.2666615 204.164605,26.9820388 C203.540702,27.8567177 202.729628,28.7049912 201.793102,29.5816504 L200.3541,28.0613595 C202.15604,26.5978403 203.146234,25.442604 204.190768,22.1538115 L206.30533,22 L206.042351,22.8759991 L212.889855,22.8759991 L214.47913,23.9249537 C213.566085,26.1377262 212.573878,27.8567177 211.529344,29.1420005 L209.705937,31.1224055 C211.059068,32.2274715 213.146795,33.2533213 215.892639,34.1511049 L214.741438,36.053614 C212.157272,35.1795952 209.915246,33.9715482 208.136116,32.4578586 C205.808891,33.9715482 203.433364,35.2310858 201.06052,36.2087457 L199.803992,34.3801717 Z M205.756564,24.9554244 C206.199334,26.7503314 206.984244,28.2666615 207.979805,29.452264 L208.163622,29.7103768 C209.337633,28.5498594 210.456633,27.08568 211.50318,25.4155385 C211.529344,25.3138777 211.529344,25.2379622 211.529344,25.1851514 C211.529344,25.0300196 211.478358,24.9554244 211.373703,24.9554244 L205.756564,24.9554244 Z M197.480792,32.3291323 L197.480792,45.8724619 L195.366231,45.8724619 L195.366231,33.5873496 C194.842957,34.9980581 194.218383,36.4926037 193.513306,38.0874899 L191.498032,37.1626408 C193.043031,33.9715482 194.166056,31.2498116 194.842957,29.0139343 L191.889816,29.0139343 L191.889816,26.8275672 L195.366231,26.8275672 L195.366231,22.0778959 L197.480792,22.0778959 L197.480792,26.8275672 L199.882483,26.8275672 L199.882483,29.0139343 L197.480792,29.0139343 L197.480792,29.1162553 C198.627298,30.4814144 199.751665,31.9178682 200.799554,33.3813875 L199.01774,34.6897751 L197.480792,32.3291323 Z M232.991875,33.3807934 L232.991875,31.3013681 L241.165675,31.3013681 L241.165675,33.3807934 L232.991875,33.3807934 Z M234.268528,26.0565956 C233.746596,27.5742459 232.914726,28.9367646 231.842686,30.1989427 L230.303054,29.1420666 L230.303054,30.7369527 C230.303054,31.1224715 230.12125,31.3284337 229.701961,31.3284337 L226.072589,31.3284337 L226.072589,32.8678685 L230.513034,32.8678685 L230.513034,34.8443127 L219.59339,34.8443127 C219.125128,34.8443127 218.863491,34.5908208 218.863491,34.0745953 L218.863491,23.4365198 C218.863491,22.9777259 219.125128,22.7209334 219.59339,22.7209334 L230.617689,22.7209334 L230.435885,24.6960573 L226.072589,24.6960573 L226.072589,26.2341719 L229.701961,26.2341719 C230.12125,26.2341719 230.303054,26.4407941 230.303054,26.8032083 L230.303054,28.6529065 C232.129815,26.4407941 232.546421,25.0300857 232.938206,22.2581788 L235.025262,22.4634808 L234.791131,23.9778305 L241.79159,23.9778305 L241.79159,26.0565956 L234.268528,26.0565956 Z M224.062683,32.8678685 L224.062683,31.3284337 L220.873398,31.3284337 L220.873398,32.5595854 C220.873398,32.7662077 220.978052,32.8678685 221.161198,32.8678685 L224.062683,32.8678685 Z M228.394448,28.1644066 C228.394448,28.0614256 228.34212,28.0112553 228.210631,28.0112553 L220.873398,28.0112553 L220.873398,29.5559712 L228.210631,29.5559712 C228.34212,29.5559712 228.394448,29.5044807 228.394448,29.3737739 L228.394448,28.1644066 Z M220.873398,26.2341719 L224.062683,26.2341719 L224.062683,24.6960573 L221.161198,24.6960573 C220.978052,24.6960573 220.873398,24.7996985 220.873398,24.9785951 L220.873398,26.2341719 Z M220.139473,43.2986616 L220.139473,36.8775285 C220.139473,36.3890286 220.376959,36.1830664 220.847234,36.1830664 L239.363736,36.1830664 C239.860846,36.1830664 240.093635,36.3890286 240.093635,36.8775285 L240.093635,43.2986616 L242.286017,43.2986616 L242.286017,45.2843476 L218.003444,45.2843476 L218.003444,43.2986616 L220.139473,43.2986616 Z M234.088737,43.2986616 L237.983099,43.2986616 L237.983099,38.4196038 C237.983099,38.2664525 237.875761,38.1608309 237.694627,38.1608309 L234.088737,38.1608309 L234.088737,43.2986616 Z M228.262958,43.2986616 L231.972162,43.2986616 L231.972162,38.1608309 L228.262958,38.1608309 L228.262958,43.2986616 Z M222.260743,43.2986616 L226.148397,43.2986616 L226.148397,38.1608309 L222.549215,38.1608309 C222.364056,38.1608309 222.260743,38.2664525 222.260743,38.4453491 L222.260743,43.2986616 Z M257.561108,28.1890297 L264.271084,28.1890297 C264.53205,28.1646047 264.689032,28.3190763 264.741359,28.6002938 C265.527611,32.2270754 266.833782,33.6364637 268.946331,35.3587559 L267.09609,36.5694435 C265.212976,34.8200857 264.24492,33.6133589 263.356697,30.5602346 C263.329191,30.3780373 263.254055,30.2763765 263.121895,30.2763765 L257.561108,30.2763765 L257.561108,28.1890297 Z M259.261746,24.1325001 L259.261746,22.0774998 L261.47895,22.0774998 L261.47895,24.1325001 L267.170555,24.1325001 L269,25.0302837 C268.895345,26.4159071 268.529725,28.0358783 267.876975,29.9423482 L265.789918,29.2465659 L266.624473,26.4159071 C266.624473,26.2112652 266.545982,26.112245 266.362165,26.112245 L254.948095,26.112245 C254.81996,26.112245 254.741469,26.1868402 254.741469,26.312926 L254.741469,29.2723112 L252.521581,29.2723112 L252.521581,24.5173588 C252.521581,24.2632068 252.654412,24.1325001 252.940871,24.1325001 L259.261746,24.1325001 Z M259.261746,42.939086 L259.261746,37.2130751 L254.923273,37.2130751 L254.923273,35.1270485 L265.553775,35.1270485 L265.553775,37.2130751 L261.47895,37.2130751 L261.47895,42.939086 L268.633038,42.939086 L268.633038,45.0251126 L252.182125,45.0251126 L252.182125,42.939086 L259.261746,42.939086 Z M251.375076,35.7442747 C253.071019,33.9975575 254.269852,31.9432174 254.923273,29.7106408 L256.932509,30.3021218 C255.989945,33.1024144 254.741469,35.3072653 253.277645,36.8519812 L251.375076,35.7442747 Z M247.428386,34.5619729 L247.428386,28.9112173 L244.818728,28.9112173 L244.818728,26.7241901 L247.428386,26.7241901 L247.428386,22.0774998 L249.646932,22.0774998 L249.646932,26.7241901 L251.79034,26.7241901 L251.79034,28.9112173 L249.646932,28.9112173 L249.646932,32.9967928 L250.852473,31.9683025 L252.338436,33.4562468 L249.646932,35.5138876 L249.646932,43.3774157 C249.646932,44.2798202 249.098165,45.8205753 247.428386,45.8205753 C246.751485,45.8205753 245.837769,45.667424 244.715415,45.3076504 L244.843549,43.0433874 C246.018902,43.5563123 246.618654,43.6606136 246.85614,43.6606136 C247.088259,43.6606136 247.428386,43.506142 247.428386,42.7852746 L247.428386,36.9562826 L245.86192,37.8784912 L244.506776,36.234755 L247.428386,34.5619729 Z" id="價格監控"></path>
            </g>
        </g>
    </g>
</svg>