<?xml version="1.0" encoding="UTF-8" standalone="no"?>
<svg width="230px" height="70px" viewBox="0 0 230 70" version="1.1" xmlns="http://www.w3.org/2000/svg" xmlns:xlink="http://www.w3.org/1999/xlink">
    <!-- Generator: Sketch 46.2 (44496) - http://www.bohemiancoding.com/sketch -->
    <title>logo</title>
    <desc>Created with Sketch.</desc>
    <defs>
        <polygon id="path-1" points="0 61.7160417 229.918443 61.7160417 229.918443 0.253674213 0 0.253674213"></polygon>
    </defs>
    <g id="Symbols" stroke="none" stroke-width="1" fill="none" fill-rule="evenodd">
        <g id="logo">
            <g id="LOGO">
                <g id="LOGO-Copy-2" transform="translate(0.000000, 4.000000)">
                    <polygon id="Fill-1" fill="#FFFFFF" points="0 28.75 0 51.1111111 17.037037 51.1111111 17.037037 47.8832316 3.50129448 47.8832316 3.50129448 41.1879149 15.384385 41.1879149 15.384385 37.9562194 3.50129448 37.9562194 3.50129448 31.9791515 16.3549222 31.9791515 16.3549222 28.75"></polygon>
                    <g id="Group-28">
                        <path d="M41.1465253,28.618069 C40.6554559,29.3437645 28.062848,47.9266775 28.062848,47.9266775 L40.7219099,47.9266775 L40.7219099,51.1674081 L21.2668443,51.1674081 C21.7682702,50.4391588 34.5740488,31.8609278 34.5740488,31.8609278 L22.3257936,31.8609278 L22.3257936,28.618069 L41.1465253,28.618069 Z" id="Fill-2" fill="#FFFFFF"></path>
                        <path d="M81.1535366,37.1522484 L81.1535366,51.1626411 L74.6746998,51.1626411 L74.6746998,29.7901631 L79.0986398,31.685484 C80.5230863,29.6241682 82.870985,27.7624719 85.7660507,27.7624719 C88.4155816,27.7624719 90.8182833,28.7775943 92.683743,30.3754014 L88.9545497,35.4582494 C87.9223546,34.0549544 86.5492589,33.2309388 85.12697,33.2309388 C82.9197467,33.2309388 81.1535366,34.9751618 81.1535366,37.1522484" id="Fill-4" fill="#FFFFFF"></path>
                        <mask id="mask-2" fill="white">
                            <use xlink:href="#path-1"></use>
                        </mask>
                        <g id="Clip-7"></g>
                        <polygon id="Fill-6" fill="#FFFFFF" mask="url(#mask-2)" points="94.837242 51.1625985 101.313921 51.1625985 101.313921 28.4119374 94.837242 28.4119374"></polygon>
                        <path d="M118.759788,51.7428996 C112.036711,51.7428996 106.00234,46.7579459 106.00234,39.7878639 C106.00234,32.8173562 112.036711,27.8319769 118.810276,27.8319769 C121.754966,27.8319769 124.503747,28.7994291 127.497199,30.97609 L125.134629,34.3738773 C123.219544,33.1621148 121.212977,32.573897 118.810276,32.573897 C115.964403,32.573897 112.67536,34.6564942 112.67536,39.7878639 C112.67536,44.9179566 115.91521,47.0009794 118.810276,47.0009794 C121.212977,47.0009794 123.521176,46.3701989 125.484159,45.2559052 L127.262021,49.1652972 C124.758775,50.9078177 122.050126,51.7428996 118.759788,51.7428996" id="Fill-8" fill="#FFFFFF" mask="url(#mask-2)"></path>
                        <path d="M141.874529,32.5738545 C139.420477,32.5738545 136.622934,34.1239912 135.887193,37.8503632 L146.928488,37.8503632 C146.682953,34.3661735 144.32815,32.5738545 141.874529,32.5738545 M142.129126,47.0009369 C144.829576,47.0009369 146.730852,46.3914378 149.285448,44.9179141 L151.204417,48.5340485 C148.503103,50.7124119 145.552371,51.742857 141.874529,51.742857 C134.71648,51.742857 129.356143,46.7579034 129.356143,39.7878213 C129.356143,32.8173136 134.811846,27.8319343 141.583253,27.8319343 C148.454773,27.8319343 153.261039,33.0105487 153.261039,40.0785251 L153.261039,41.5307674 L135.887193,41.5307674 C136.314398,45.0038909 139.253478,47.0009369 142.129126,47.0009369" id="Fill-9" fill="#FFFFFF" mask="url(#mask-2)"></path>
                        <path d="M54.9412176,32.3332045 L54.9412176,47.1918735 C55.4810488,47.3872367 56.1684597,47.4847055 56.8066773,47.4847055 C59.5537317,47.4847055 63.4322308,45.354438 63.4322308,40.4171547 C63.4322308,35.285785 59.9464146,32.2374382 56.5119493,32.2374382 C55.9729812,32.2374382 55.4309925,32.2859598 54.9412176,32.3332045 L54.9412176,32.3332045 Z M43.164182,33.8829156 C46.2068274,30.2042139 50.9669212,27.8321897 56.2668462,27.8321897 C64.7082345,27.8321897 70.1061144,34.0272034 70.1061144,40.4171547 C70.1061144,46.7087859 65.0504296,51.7431124 58.6216492,51.7431124 C57.2973152,51.7431124 56.0700732,51.5498773 54.9412176,51.2115032 L54.9412176,61.7159991 L48.4632439,61.7159991 L48.4632439,34.510291 C47.4819681,35.1414972 46.5990788,35.8182455 45.8132814,36.6409842 L43.164182,33.8829156 Z" id="Fill-10" fill="#FFFFFF" mask="url(#mask-2)"></path>
                        <path d="M100.932199,8.39576518 C102.541767,9.98293152 102.541767,12.5596827 100.932199,14.1477003 C99.3226304,15.7352922 96.7093471,15.7352922 95.1002101,14.1485515 C93.4897786,12.5588314 93.4906417,9.98335715 95.1010732,8.39576518 C96.7102101,6.80859884 99.3213358,6.80689633 100.932199,8.39576518 Z M93.7638799,15.4659975 C95.3730169,17.0531638 95.3738799,19.629915 93.7634484,21.2179326 C92.1543114,22.8059502 89.5414597,22.8050989 87.9327542,21.2179326 C86.3214597,19.6282125 86.3227542,17.0535894 87.9323227,15.4659975 C89.5423227,13.8784055 92.1530169,13.8771286 93.7638799,15.4659975 Z M107.978743,1.44521944 C109.588311,3.03238578 109.588311,5.60913693 107.979174,7.19715453 C106.369174,8.7847465 103.756323,8.7847465 102.147186,7.19800578 C100.536323,5.60828568 100.537617,3.03323704 102.147617,1.44521944 C103.757617,-0.142372524 106.36788,-0.144075035 107.978743,1.44521944 Z M102.147531,15.4659975 C103.757099,13.8788311 106.369088,13.8784055 107.979088,15.4668487 C109.589088,17.0535894 109.588225,19.6307662 107.978657,21.2179326 C106.368657,22.8068014 103.757531,22.8059502 102.147962,21.2179326 C100.537962,19.629915 100.537099,17.055292 102.147531,15.4659975 Z M87.9322795,1.44564507 C89.5414165,-0.141521268 92.1542683,-0.142372524 93.7638368,1.44521944 C95.3742683,3.03323704 95.3742683,5.61083944 93.7646998,7.19800578 C92.1538368,8.78644901 89.5422795,8.7847465 87.9327111,7.19715453 C86.3231426,5.60913693 86.3214165,3.0340883 87.9322795,1.44564507 Z" id="Combined-Shape" fill="#FFFFFF" mask="url(#mask-2)"></path>
                        <path d="M161.635111,29.5083974 L161.635111,36.2775831 L167.789013,36.2775831 L167.789013,38.2895261 L161.635111,38.2895261 L161.635111,48.1496214 L161.78269,48.1113149 C163.825936,47.5839619 165.886874,46.8935935 167.913722,46.069578 L167.913722,48.1436626 C165.294829,49.2443363 163.56573,49.9717343 160.542503,50.776171 C160.540345,50.7770222 159.928882,50.9162026 159.574604,50.6408213 C159.405448,50.5088767 159.319576,50.2943602 159.319576,50.0049333 L159.319576,29.5083974 L161.635111,29.5083974 Z" id="Fill-16" fill="#FFFFFF" mask="url(#mask-2)"></path>
                        <path d="M172.153835,29.5333392 L172.153835,38.3438362 L172.334642,38.2344498 C174.723535,36.7813563 176.781884,35.1137462 178.465674,33.2801414 C178.605917,33.4618845 179.638113,34.8009098 179.745992,34.941367 C177.978488,36.7971045 175.448488,38.7758485 172.208638,40.8248211 L172.155561,40.8592969 L172.103347,46.9125765 C172.103347,48.2345767 172.749332,48.9053662 174.023178,48.9053662 L176.24982,48.9053662 C177.011884,48.9053662 177.497343,48.4082329 177.69239,47.4292888 C177.869745,46.5384496 178.02466,45.3083851 178.155411,43.7850629 C178.394041,43.8574197 180.190889,44.406054 180.350983,44.4554268 C180.152916,46.9104484 179.856893,48.6316875 179.467231,49.5578538 C179.084473,50.4721024 178.269332,50.9168836 176.975636,50.9168836 L173.5977,50.9168836 C172.268188,50.9168836 171.301583,50.645333 170.727231,50.1098931 C170.154604,49.5761558 169.864191,48.5916785 169.864191,47.1845527 L169.864191,29.5333392 L172.153835,29.5333392 Z" id="Fill-17" fill="#FFFFFF" mask="url(#mask-2)"></path>
                        <path d="M185.793871,29.231569 C185.982445,29.279665 187.584677,29.6929497 187.774114,29.7418969 C187.691694,30.1011268 187.406028,31.3196994 187.173008,32.015601 L187.167829,32.033903 L187.167829,51.351024 L185.17766,51.351024 L185.17766,35.9675558 L184.950681,36.4314901 C184.559724,37.3257343 183.720418,38.8779992 183.23237,39.4777088 C183.118017,39.1546573 182.450456,37.2678489 182.418523,37.1788927 C183.858073,34.9320031 184.961901,32.3284374 185.793871,29.231569" id="Fill-18" fill="#FFFFFF" mask="url(#mask-2)"></path>
                        <path d="M194.019715,47.9085032 C194.112492,48.0349147 194.945756,49.1815562 195.083411,49.3718118 C193.102304,50.2783992 191.617876,50.9402505 189.461572,51.3173568 C189.391666,51.1786021 188.686131,49.7859477 188.570916,49.560365 C191.088833,49.0857899 192.529677,48.513746 194.019715,47.9085032" id="Fill-19" fill="#FFFFFF" mask="url(#mask-2)"></path>
                        <path d="M191.504991,41.0709617 L201.672889,41.0709617 L201.672889,39.8515378 L191.504991,39.8515378 L191.504991,41.0709617 Z M191.504991,43.6132369 L201.672889,43.6132369 L201.672889,42.2699554 L191.504991,42.2699554 L191.504991,43.6132369 Z M191.504991,46.2282946 L201.672889,46.2282946 L201.672889,44.8113794 L191.504991,44.8113794 L191.504991,46.2282946 Z M189.839756,47.599242 L203.362289,47.599242 L203.362289,38.4805904 L189.839756,38.4805904 L189.839756,47.599242 Z" id="Fill-20" fill="#FFFFFF" mask="url(#mask-2)"></path>
                        <path d="M199.079974,47.9234853 C200.567422,48.2184454 201.713538,48.5968286 203.150499,49.0731062 C203.150499,49.0731062 204.331568,49.4595763 204.530931,49.5246974 C204.45973,49.7141018 203.931118,51.1199506 203.862938,51.3016937 C203.673932,51.2344445 202.151099,50.6943227 202.151099,50.6943227 C201.125809,50.3129602 199.958116,49.8813735 198.333445,49.3974346 C198.433989,49.1978151 199.010931,48.0592606 199.079974,47.9234853" id="Fill-21" fill="#FFFFFF" mask="url(#mask-2)"></path>
                        <path d="M199.647336,35.9634272 L202.510901,35.9634272 L202.510901,34.1753645 L199.647336,34.1753645 L199.647336,35.9634272 Z M195.119831,32.7805819 L198.007129,32.7805819 L198.007129,31.2393834 L195.119831,31.2393834 L195.119831,32.7805819 Z M195.119831,35.9634272 L198.007129,35.9634272 L198.007129,34.1753645 L195.119831,34.1753645 L195.119831,35.9634272 Z M190.566867,35.9634272 L193.454165,35.9634272 L193.454165,34.1753645 L190.566867,34.1753645 L190.566867,35.9634272 Z M199.647767,32.7805819 L199.647767,31.2389578 L203.483977,31.2389578 L203.483977,29.6960567 L189.759493,29.6960567 L189.759493,31.2389578 L193.454165,31.2389578 L193.454165,32.7805819 L188.726435,32.7805819 L188.726435,37.359061 L204.350469,37.359061 L204.350469,32.7805819 L199.647767,32.7805819 Z" id="Fill-22" fill="#FFFFFF" mask="url(#mask-2)"></path>
                        <path d="M215.3134,44.6672618 C215.644807,45.9190334 215.823456,47.0188558 216.007715,48.1786918 C216.007715,48.1786918 216.191542,49.2925599 216.220886,49.4713236 C216.05173,49.5177171 214.774,49.865455 214.555651,49.9254686 C214.344638,47.9684316 214.171167,46.3961622 213.886364,44.9226385 C214.071917,44.8894396 215.136908,44.6987583 215.3134,44.6672618" id="Fill-23" fill="#FFFFFF" mask="url(#mask-2)"></path>
                        <path d="M208.825415,45.2013397 C209.010968,45.215811 210.248135,45.3149823 210.443614,45.3315818 C210.233032,47.8666214 209.888248,49.8198277 209.418754,51.1490636 C209.229317,51.0933063 207.836371,50.6800217 207.644777,50.6242644 C208.243726,48.8991946 208.640724,47.0762304 208.825415,45.2013397" id="Fill-24" fill="#FFFFFF" mask="url(#mask-2)"></path>
                        <path d="M212.850674,45.1011894 C213.079811,46.3172083 213.20452,47.7673224 213.20452,49.1527412 C213.20452,49.6477464 213.185101,50.1295571 213.153169,50.5934915 C212.969341,50.6020041 211.439604,50.6709558 211.218666,50.6815965 C211.230317,50.5058122 211.261386,50.0733742 211.261386,50.0733742 L211.336471,48.5500521 L211.346396,47.6941144 C211.352006,47.3634016 211.358047,47.015238 211.358047,46.6657975 C211.358047,46.1656847 211.342944,45.6681258 211.299792,45.2084477 C211.491818,45.1952532 212.674614,45.1126814 212.850674,45.1011894" id="Fill-25" fill="#FFFFFF" mask="url(#mask-2)"></path>
                        <path d="M208.644651,34.9783966 C209.824426,32.9234652 210.933863,30.9813252 211.511236,29.1260133 C211.688591,29.1702786 213.321893,29.5776045 213.549304,29.634213 C212.788966,31.5163395 211.557841,33.7274763 210.227034,35.5819369 L210.09542,35.7658082 L210.324126,35.7658082 C211.083169,35.7658082 212.451949,35.7134559 213.043563,35.6159871 L213.09664,35.6079002 L213.479829,35.0060624 C213.878985,34.3982658 214.370917,33.6397969 214.779135,32.6225463 C214.950017,32.6757498 216.28255,33.0903113 216.490974,33.1554324 C214.783882,37.1601651 212.578816,40.0633728 211.022325,41.7973807 L210.835477,42.0046615 L211.116396,41.9918927 C212.476546,41.9250691 213.261049,41.8318566 214.112437,41.6318115 L214.227653,41.6041457 L214.200036,41.4896518 C214.197015,41.4798624 213.957953,40.5256047 213.63345,39.724573 C213.837559,39.6692414 214.961236,39.3644918 215.129529,39.318524 C215.652962,40.6622312 215.941218,41.440279 216.349004,43.0321272 C215.690073,43.1806713 212.072644,43.9565909 208.066846,44.0319271 C208.05088,43.8425227 207.923582,42.3677221 207.915383,42.2681252 C209.266902,41.0584908 211.158253,38.9852574 212.24482,37.519395 L212.393694,37.3184986 L209.031293,37.5223744 C209.031293,37.5223744 208.545833,37.5470608 208.379698,37.5555734 C208.362437,37.3602102 208.223488,35.7896433 208.21831,35.7249479 C208.250674,35.6666369 208.644651,34.9783966 208.644651,34.9783966" id="Fill-26" fill="#FFFFFF" mask="url(#mask-2)"></path>
                        <path d="M228.028473,36.0624282 L225.917047,36.0624282 L226.003351,35.8938796 C226.368417,35.1720147 226.692919,34.1305033 226.96866,32.8050981 C226.76973,32.7667916 225.34442,32.491836 225.151531,32.4548064 C224.887009,33.9015155 224.547403,35.0941248 224.139617,35.9934765 L224.108979,36.0624282 L222.892094,36.0624282 L222.867497,35.9764514 C222.496822,34.6433849 222.105433,33.478867 221.703689,32.4977948 C221.543595,32.5241837 220.186465,32.7412539 219.94654,32.7799861 C220.388417,33.7193468 220.784983,34.7680939 221.118979,35.9134585 L221.162131,36.0624282 L219.010574,36.0624282 L219.010574,31.4860773 L228.028473,31.4860773 L228.028473,36.0624282 Z M224.47836,40.7013464 L228.028473,40.7013464 L228.028473,37.6798141 L224.47836,37.6798141 L224.47836,40.7013464 Z M219.011006,40.7013464 L222.742788,40.7013464 L222.742788,37.6798141 L219.011006,37.6798141 L219.011006,40.7013464 Z M217.121381,29.8686914 L217.121381,51.3509814 L219.010574,51.3509814 C219.0123,51.1236961 219.036034,42.3187323 219.036034,42.3187323 L220.873445,42.3187323 L220.873445,44.8043991 C220.873445,45.8850683 221.072375,46.6209789 221.462038,46.9908495 C221.854289,47.3615714 222.568454,47.5501245 223.582094,47.5501245 L226.86639,47.5501245 L226.86639,45.9314617 L223.682638,45.9314617 C223.195021,45.9314617 222.612901,45.719499 222.612901,44.7056534 L222.612901,42.3187323 L228.052638,42.3187323 L228.052638,48.2345341 C228.052638,48.6359012 227.880462,49.1151582 227.05367,49.1151582 C227.05367,49.1151582 224.959505,49.0142844 224.667797,48.9998131 C224.746765,49.2619998 225.228341,50.8615094 225.271062,51.0040947 L227.585302,51.0040947 C228.541981,51.0040947 229.175884,50.8206491 229.468886,50.4567373 C229.766634,50.0847385 229.918529,49.3620224 229.918529,48.3081678 L229.918529,29.8686914 L217.121381,29.8686914 Z" id="Fill-27" fill="#FFFFFF" mask="url(#mask-2)"></path>
                    </g>
                </g>
            </g>
        </g>
    </g>
</svg>