<?xml version="1.0" encoding="UTF-8" standalone="no"?>
<svg width="165px" height="35px" viewBox="0 0 165 35" version="1.1" xmlns="http://www.w3.org/2000/svg" xmlns:xlink="http://www.w3.org/1999/xlink">
    <!-- Generator: Sketch 46.2 (44496) - http://www.bohemiancoding.com/sketch -->
    <title>logo copy</title>
    <desc>Created with Sketch.</desc>
    <defs></defs>
    <g id="Symbols" stroke="none" stroke-width="1" fill="none" fill-rule="evenodd">
        <g id="navBar" transform="translate(-428.000000, -13.000000)" fill="#1ABB9C">
            <g id="logo-copy">
                <g transform="translate(428.000000, 13.000000)">
                    <path d="M0,13.2249492 L11.4293641,13.2249492 L11.4293641,15.4455704 L2.34929809,15.4455704 L2.34929809,19.5511812 L10.3200423,19.5511812 L10.3200423,21.7713828 L2.34929809,21.7713828 L2.34929809,26.3691132 L11.4293641,26.3691132 L11.4293641,28.5888952 L0,28.5888952 L0,13.2249492 Z M27.0382214,13.2256624 C26.7128258,13.7215578 18.3745128,26.3803149 18.3745128,26.3803149 L27.0382214,26.3803149 L27.0382214,28.5887694 L13.8727251,28.5887694 C14.2051496,28.0932935 22.6852805,15.434956 22.6852805,15.434956 L13.8727251,15.434956 L13.8727251,13.2256624 L27.0382214,13.2256624 Z M52.1553272,19.2598112 L52.1553272,28.5886855 L48.109176,28.5886855 L48.109176,14.5316041 L50.8715238,15.7453311 C51.7604698,14.4212653 53.2286777,13.2255785 55.0371659,13.2255785 C56.6914323,13.2255785 58.1931307,13.877962 59.3582701,14.9045745 L57.0284048,18.1706874 C56.3838156,17.2695171 55.525466,16.7417368 54.6369335,16.7417368 C53.2584471,16.7417368 52.1553272,17.8602284 52.1553272,19.2598112 Z M61.8015898,28.5889372 L61.8015898,13.2258303 L65.8473275,13.2258303 L65.8473275,28.5889372 L61.8015898,28.5889372 Z M76.7628395,28.5888113 C72.56288,28.5888113 68.7941626,25.3831121 68.7941626,20.9074676 C68.7941626,16.4263692 72.56288,13.2223481 76.7938493,13.2223481 C78.6333472,13.2223481 80.3500465,13.8441052 82.2205542,15.2420099 L80.7436635,17.4273897 C79.5483413,16.6466272 78.2963747,16.269881 76.7938493,16.269881 C75.0171978,16.269881 72.962699,17.6077916 72.962699,20.9074676 C72.962699,24.2016896 74.986188,25.5437956 76.7938493,25.5437956 C78.2963747,25.5437956 79.7368806,25.1360035 80.962799,24.4190109 L82.0746017,26.93289 C80.5088164,28.0530597 78.8173383,28.5888113 76.7628395,28.5888113 Z M91.890715,25.5436698 C93.576818,25.5436698 94.7655248,25.1514006 96.3619064,24.2015638 L97.5597094,26.5287479 C95.8731928,27.9258135 94.027493,28.5886855 91.7298778,28.5886855 C87.2599268,28.5886855 83.912115,25.3834058 83.912115,20.9077613 C83.912115,16.4262433 87.3198789,13.2222222 91.5512617,13.2222222 C95.8417696,13.2222222 98.8443396,16.5500074 98.8443396,21.0910999 L98.8443396,22.0245747 L87.9909298,22.0245747 C88.2576136,24.2573625 90.0929768,25.5436698 91.890715,25.5436698 Z M91.7298778,16.2697552 C90.1971696,16.2697552 88.4502874,17.267839 87.9909298,19.6613103 L94.8891503,19.6613103 C94.7349286,17.4209708 93.2634129,16.2697552 91.7298778,16.2697552 Z M28.8345951,17.1112669 C30.7365259,14.7463243 33.7084997,13.2225579 37.0195132,13.2225579 C42.2932368,13.2225579 45.6633756,17.2048242 45.6633756,21.3108546 C45.6633756,25.353115 42.5057569,28.5890211 38.4914423,28.5890211 C37.6632755,28.5890211 36.8967146,28.4627398 36.1913464,28.2487748 L36.1913464,35 L32.1447817,35 L32.1447817,17.5152832 C31.5316157,17.9218167 30.9812962,18.3543617 30.4896884,18.8846592 L28.8345951,17.1112669 Z M36.1913464,16.1165394 L36.1913464,25.662735 C36.5291458,25.7915335 36.9579072,25.8527863 37.3560723,25.8527863 C39.0731851,25.8527863 41.4956662,24.4817321 41.4956662,21.3108546 C41.4956662,18.0111786 39.3179553,16.0544476 37.1724946,16.0544476 C36.836349,16.0544476 36.4973092,16.0863326 36.1913464,16.1165394 Z" id="EZPRICE"></path>
                    <path d="M65.8315812,5.44444444 C65.8315812,6.54938053 64.930594,7.4489092 63.8206107,7.4489092 C62.7114502,7.4489092 61.8092288,6.54938053 61.8092288,5.44444444 C61.8096402,4.3362284 62.7114502,3.4383397 63.8206107,3.4383397 C64.930594,3.4383397 65.8315812,4.3362284 65.8315812,5.44444444 Z M69.2687034,8.86855733 C69.2687034,9.97513339 68.3677162,10.8730221 67.2560872,10.8730221 C66.1465153,10.8730221 65.2442939,9.97513339 65.2442939,8.86855733 C65.2442939,7.76116127 66.1465153,6.86245259 67.2560872,6.86245259 C68.3668934,6.86409257 69.2687034,7.76116127 69.2687034,8.86855733 Z M60.3848462,10.8888889 C59.2736287,10.8888889 58.3726415,9.99141019 58.3726415,8.88524412 C58.3726415,7.77784806 59.2736287,6.87954937 60.3848462,6.87954937 C61.4956524,6.87954937 62.3974624,7.77784806 62.3974624,8.88524412 C62.3966396,9.99141019 61.4960638,10.8888889 60.3848462,10.8888889 Z M58.3727649,2.02037256 C58.3727649,0.913796494 59.2729293,0.0159077997 60.3849697,0.0159077997 C61.4953644,0.0159077997 62.3971744,0.913796494 62.3971744,2.02037256 C62.3971744,3.12694863 61.4953644,4.02319734 60.3849697,4.02319734 C59.2733407,4.02319734 58.3727649,3.12694863 58.3727649,2.02037256 Z M67.2562518,0 C68.3666465,0 69.2688679,0.897068704 69.2688679,2.00446476 C69.2688679,3.11022084 68.3666465,4.00933952 67.2562518,4.00933952 C66.1454457,4.00933952 65.2440471,3.11022084 65.2440471,2.00446476 C65.2448699,0.899118678 66.1454457,0 67.2562518,0 Z" id="Combined-Shape"></path>
                    <path d="M112.507932,16.7321893 L112.507932,17.7475564 L114.400027,17.7475564 L114.463426,17.6841468 L114.463426,16.7805595 L114.400027,16.7321893 L112.507932,16.7321893 Z M115.457228,28 C114.110614,27.4313457 112.971076,27.0838121 112.106542,26.9090291 L112.379899,25.6562824 C113.404578,25.8627702 114.609161,26.2420085 115.984594,26.8289541 L115.457228,28 Z M109.382437,17.7475564 L111.274531,17.7475564 L111.274531,16.7321893 L109.382437,16.7321893 L109.382437,17.7475564 Z M109.382437,15.6412185 L111.274531,15.6412185 L111.274531,14.8197385 L109.382437,14.8197385 L109.382437,15.6412185 Z M106.836179,22.8117912 L113.869367,22.8117912 L113.869367,22.0496562 L106.836179,22.0496562 L106.836179,22.8117912 Z M113.869367,23.7905758 L106.836179,23.7905758 L106.836179,24.3767085 C106.8193,24.4242657 106.836179,24.4393052 106.884345,24.4559705 L113.804733,24.4559705 L113.869367,24.3767085 L113.869367,23.7905758 Z M106.836179,21.0834722 L113.869367,21.0834722 L113.869367,20.4827066 C113.869367,20.4355558 113.853312,20.4197034 113.804733,20.4197034 L106.884345,20.4197034 C106.836179,20.4197034 106.8193,20.4355558 106.836179,20.4827066 L106.836179,21.0834722 Z M108.130509,17.7475564 L108.130509,16.7321893 L106.228123,16.7321893 C106.18078,16.7321893 106.163901,16.7488547 106.18078,16.7805595 L106.18078,17.6841468 L106.228123,17.7475564 L108.130509,17.7475564 Z M115.170285,25.1656707 C115.170285,25.3721584 115.056661,25.4814994 114.832293,25.4814994 L105.859255,25.4814994 C105.65012,25.4814994 105.538966,25.3721584 105.538966,25.1656707 L105.538966,19.692525 C105.538966,19.4868502 105.65012,19.3766963 105.859255,19.3766963 L114.832293,19.3766963 C115.056661,19.3766963 115.170285,19.4868502 115.170285,19.692525 L115.170285,25.1656707 Z M112.507932,15.6412185 L115.520627,15.6412185 C115.633428,15.6412185 115.697651,15.6883692 115.697651,15.800149 L115.697651,18.6669961 C115.697651,18.7755242 115.633428,18.8393403 115.520627,18.8393403 L105.105052,18.8393403 C104.992251,18.8393403 104.944084,18.7755242 104.944084,18.6669961 L104.944084,15.800149 C104.944084,15.6883692 104.992251,15.6412185 105.105052,15.6412185 L108.130509,15.6412185 L108.130509,14.8197385 L105.169275,14.8197385 L105.169275,13.7295806 L115.633428,13.7295806 L115.633428,14.8197385 L112.507932,14.8197385 L112.507932,15.6412185 Z M104.799172,26.7500986 C106.308401,26.4009391 107.475934,26.0046289 108.342114,25.6245776 L108.772323,26.8289541 C107.827511,27.2728216 106.627044,27.6853907 105.169275,28 L104.799172,26.7500986 Z M102.781103,19.9140523 L102.428291,20.499372 L101.179245,20.0420909 C102.493337,17.9532313 103.261949,15.7367394 103.437325,13.4129389 L104.751005,13.5718694 C104.574393,14.7880337 104.350026,15.8777852 104.07708,16.7805595 L104.07708,27.8735872 L102.781103,27.8735872 L102.781103,19.9140523 Z M125.022431,27.0203212 L125.022431,27.7458737 L123.660172,27.7458737 L123.660172,22.0654273 C123.644117,21.939421 123.724807,21.8597525 123.882893,21.8597525 L130.949428,21.8597525 C131.125216,21.8597525 131.221962,21.9552734 131.221962,22.1137975 L131.221962,27.7458737 L129.859704,27.7458737 L129.859704,27.0203212 L125.022431,27.0203212 Z M125.022431,25.7366825 L129.859704,25.7366825 L129.859704,23.3157352 C129.859704,23.2063943 129.797128,23.1446105 129.653039,23.1446105 L125.21304,23.1446105 C125.069774,23.1446105 125.006375,23.2063943 125.022431,23.3157352 L125.022431,25.7366825 Z M122.537102,20.8451983 C124.237763,20.1997208 125.646542,19.4871753 126.734208,18.7270727 C126.031465,17.9064057 125.517685,17.080861 125.21304,16.2898665 C124.830175,16.8284419 124.33245,17.3507585 123.757741,17.8905533 L122.874682,16.9544482 C123.980462,16.0532998 124.588105,15.3419738 125.229095,13.3169302 L126.52672,13.2222222 L126.36534,13.7616106 L130.567386,13.7616106 L131.542663,14.4074946 C130.982363,15.7699888 130.373484,16.8284419 129.732494,17.6198429 L128.61354,18.839259 C129.443904,19.5196931 130.725061,20.1513506 132.410078,20.7041526 L131.703631,21.8756049 C130.117829,21.337436 128.741985,20.5935922 127.650202,19.6615518 C126.222074,20.5935922 124.764306,21.3691408 123.308184,21.9711258 L122.537102,20.8451983 Z M126.189963,15.0419974 C126.461674,16.1471948 126.943343,17.080861 127.55428,17.8108848 L127.667081,17.9698153 C128.387526,17.2552375 129.074213,16.3536826 129.716438,15.3253084 C129.732494,15.2627117 129.732494,15.2159674 129.732494,15.1834497 C129.732494,15.0879288 129.701206,15.0419974 129.636983,15.0419974 L126.189963,15.0419974 Z M121.111444,19.5822898 L121.111444,27.9214696 L119.81382,27.9214696 L119.81382,20.3570255 C119.492707,21.2256561 119.109431,22.1459088 118.676752,23.1279452 L117.440057,22.5584779 C118.388162,20.5935922 119.077319,18.9177081 119.492707,17.5409874 L117.68048,17.5409874 L117.68048,16.194752 L119.81382,16.194752 L119.81382,13.2701859 L121.111444,13.2701859 L121.111444,16.194752 L122.585269,16.194752 L122.585269,17.5409874 L121.111444,17.5409874 L121.111444,17.6039905 C121.81501,18.4445746 122.50499,19.3290577 123.148039,20.2302062 L122.054609,21.0358337 L121.111444,19.5822898 Z M142.903214,20.2298404 L142.903214,18.9494535 L147.919157,18.9494535 L147.919157,20.2298404 L142.903214,20.2298404 Z M143.686647,15.7200334 C143.366357,16.6545125 142.855871,17.4934708 142.198002,18.2706453 L141.25319,17.6198836 L141.25319,18.60192 C141.25319,18.8392996 141.141624,18.9661189 140.884322,18.9661189 L138.657118,18.9661189 L138.657118,19.9140116 L141.382046,19.9140116 L141.382046,21.1309888 L134.681085,21.1309888 C134.393731,21.1309888 134.233175,20.9749036 134.233175,20.6570424 L134.233175,14.106746 C134.233175,13.8242479 134.393731,13.6661303 134.681085,13.6661303 L141.446269,13.6661303 L141.334703,14.8822946 L138.657118,14.8822946 L138.657118,15.8293744 L140.884322,15.8293744 C141.141624,15.8293744 141.25319,15.9566001 141.25319,16.1797532 L141.25319,17.3186878 C142.374202,15.9566001 142.629857,15.0879694 142.87028,13.3811934 L144.151025,13.5076062 L144.007347,14.440053 L148.303257,14.440053 L148.303257,15.7200334 L143.686647,15.7200334 Z M137.423716,19.9140116 L137.423716,18.9661189 L135.466576,18.9661189 L135.466576,19.7241892 C135.466576,19.8514149 135.530799,19.9140116 135.643188,19.9140116 L137.423716,19.9140116 Z M140.081952,17.0178985 C140.081952,16.9544889 140.049841,16.923597 139.969151,16.923597 L135.466576,16.923597 L135.466576,17.8747415 L139.969151,17.8747415 C140.049841,17.8747415 140.081952,17.8430367 140.081952,17.7625552 L140.081952,17.0178985 Z M135.466576,15.8293744 L137.423716,15.8293744 L137.423716,14.8822946 L135.643188,14.8822946 C135.530799,14.8822946 135.466576,14.9461107 135.466576,15.0562646 L135.466576,15.8293744 Z M135.016195,26.3366759 L135.016195,22.3829226 C135.016195,22.0821333 135.161931,21.9553141 135.450521,21.9553141 L146.813377,21.9553141 C147.118434,21.9553141 147.261288,22.0821333 147.261288,22.3829226 L147.261288,26.3366759 L148.606668,26.3366759 L148.606668,27.5593437 L133.705397,27.5593437 L133.705397,26.3366759 L135.016195,26.3366759 Z M143.576316,26.3366759 L145.966134,26.3366759 L145.966134,23.3324412 C145.966134,23.2381397 145.900265,23.1731042 145.789111,23.1731042 L143.576316,23.1731042 L143.576316,26.3366759 Z M140.001262,26.3366759 L142.277456,26.3366759 L142.277456,23.1731042 L140.001262,23.1731042 L140.001262,26.3366759 Z M136.317936,26.3366759 L138.703638,26.3366759 L138.703638,23.1731042 L136.49496,23.1731042 C136.381335,23.1731042 136.317936,23.2381397 136.317936,23.3482936 L136.317936,26.3366759 Z M157.980397,17.0330599 L162.098048,17.0330599 C162.258193,17.0180205 162.354526,17.1131349 162.386638,17.286292 C162.86913,19.5194492 163.670676,20.387267 164.967065,21.4477525 L163.831644,22.1932221 C162.676051,21.1160713 162.081992,20.3730405 161.536924,18.4931074 C161.520045,18.3809211 161.473937,18.3183244 161.392835,18.3183244 L157.980397,18.3183244 L157.980397,17.0330599 Z M159.024013,14.5352894 L159.024013,13.269942 L160.384624,13.269942 L160.384624,14.5352894 L163.877341,14.5352894 L165,15.0880913 C164.935777,15.9412761 164.71141,16.9387584 164.310843,18.1126496 L163.030098,17.6842281 L163.542231,15.9412761 C163.542231,15.8152698 163.494064,15.754299 163.381263,15.754299 L156.376892,15.754299 C156.298261,15.754299 156.250094,15.8002303 156.250094,15.8778665 L156.250094,17.7000805 L154.887836,17.7000805 L154.887836,14.7722626 C154.887836,14.6157709 154.969349,14.5352894 155.145137,14.5352894 L159.024013,14.5352894 Z M159.024013,26.1152706 L159.024013,22.5895323 L156.36166,22.5895323 L156.36166,21.3050808 L162.885185,21.3050808 L162.885185,22.5895323 L160.384624,22.5895323 L160.384624,26.1152706 L164.77481,26.1152706 L164.77481,27.3997221 L154.679524,27.3997221 L154.679524,26.1152706 L159.024013,26.1152706 Z M154.18427,21.6851321 C155.225004,20.6096072 155.960681,19.3446663 156.36166,17.9699779 L157.59465,18.3341768 C157.016236,20.0584311 156.250094,21.4160476 155.351802,22.3671921 L154.18427,21.6851321 Z M151.76234,20.9571407 L151.76234,17.4777403 L150.160894,17.4777403 L150.160894,16.1310985 L151.76234,16.1310985 L151.76234,13.269942 L153.123775,13.269942 L153.123775,16.1310985 L154.439101,16.1310985 L154.439101,17.4777403 L153.123775,17.4777403 L153.123775,19.9933956 L153.863569,19.3601122 L154.775446,20.2763001 L153.123775,21.5432734 L153.123775,26.385168 C153.123775,26.9408152 152.787018,27.8895209 151.76234,27.8895209 C151.346952,27.8895209 150.78624,27.7952194 150.097495,27.5736922 L150.176126,26.1794932 C150.897394,26.4953219 151.265439,26.5595445 151.411174,26.5595445 C151.553617,26.5595445 151.76234,26.46443 151.76234,26.0205626 L151.76234,22.4314147 L150.80106,22.9992561 L149.969461,21.9871408 L151.76234,20.9571407 Z" id="價格監控"></path>
                </g>
            </g>
        </g>
    </g>
</svg>